<?xml version="1.0" encoding="UTF-8"?>
<svg xmlns="http://www.w3.org/2000/svg" viewBox="0 0 1600 700" width="1600" height="700">
  <defs>
    <linearGradient id="heroGrad" x1="0%" y1="0%" x2="100%" y2="100%">
      <stop offset="0%" stop-color="#030712"/>
      <stop offset="40%" stop-color="#0f172a"/>
      <stop offset="80%" stop-color="#1e1b4b"/>
      <stop offset="100%" stop-color="#020617"/>
    </linearGradient>
    <radialGradient id="stageSpotlight" cx="70%" cy="40%" r="55%">
      <stop offset="0%" stop-color="#fde047" stop-opacity="0.35"/>
      <stop offset="40%" stop-color="#38bdf8" stop-opacity="0.18"/>
      <stop offset="100%" stop-color="#030712" stop-opacity="0"/>
    </radialGradient>
  </defs>

  <rect width="1600" height="700" rx="28" fill="url(#heroGrad)"/>
  <rect width="1600" height="700" rx="28" fill="url(#stageSpotlight)"/>

  <!-- Floating Cinematic Star Particles -->
  <g fill="#ffffff" opacity="0.5">
    <circle cx="466" cy="561" r="2.7"/>
    <circle cx="634" cy="186" r="1.6"/>
    <circle cx="302" cy="414" r="3.1"/>
    <circle cx="783" cy="162" r="2.4"/>
    <circle cx="1132" cy="471" r="1.7"/>
    <circle cx="462" cy="337" r="1.0"/>
    <circle cx="849" cy="97" r="2.7"/>
    <circle cx="1411" cy="519" r="2.6"/>
    <circle cx="1344" cy="409" r="3.3"/>
    <circle cx="677" cy="112" r="3.1"/>
    <circle cx="1527" cy="670" r="3.4"/>
    <circle cx="584" cy="65" r="1.3"/>
    <circle cx="793" cy="264" r="1.8"/>
    <circle cx="1481" cy="22" r="3.4"/>
    <circle cx="1484" cy="192" r="2.6"/>
    <circle cx="77" cy="184" r="2.4"/>
    <circle cx="254" cy="396" r="3.2"/>
    <circle cx="444" cy="545" r="2.7"/>
    <circle cx="281" cy="459" r="2.8"/>
    <circle cx="707" cy="470" r="2.6"/>
    <circle cx="1397" cy="233" r="2.1"/>
    <circle cx="109" cy="455" r="1.6"/>
    <circle cx="946" cy="199" r="1.8"/>
    <circle cx="59" cy="602" r="1.1"/>
    <circle cx="1571" cy="212" r="3.4"/>
    <circle cx="666" cy="187" r="3.3"/>
    <circle cx="337" cy="338" r="3.3"/>
    <circle cx="1542" cy="219" r="1.5"/>
    <circle cx="377" cy="670" r="1.8"/>
    <circle cx="158" cy="81" r="3.3"/>
    <circle cx="70" cy="33" r="1.0"/>
    <circle cx="998" cy="333" r="3.1"/>
    <circle cx="671" cy="196" r="2.4"/>
    <circle cx="332" cy="477" r="2.3"/>
    <circle cx="590" cy="51" r="1.0"/>
    <circle cx="538" cy="55" r="1.6"/>
    <circle cx="893" cy="467" r="2.6"/>
    <circle cx="1109" cy="119" r="2.7"/>
    <circle cx="336" cy="408" r="2.1"/>
    <circle cx="709" cy="328" r="2.2"/>
    <circle cx="687" cy="480" r="1.7"/>
    <circle cx="1515" cy="297" r="3.0"/>
    <circle cx="1437" cy="618" r="2.5"/>
    <circle cx="1112" cy="334" r="2.9"/>
    <circle cx="1532" cy="120" r="1.8"/>
    <circle cx="455" cy="546" r="2.5"/>
    <circle cx="21" cy="519" r="3.4"/>
    <circle cx="771" cy="139" r="3.5"/>
    <circle cx="33" cy="661" r="2.7"/>
    <circle cx="125" cy="29" r="2.5"/>
    <circle cx="808" cy="426" r="1.3"/>
    <circle cx="334" cy="124" r="2.8"/>
    <circle cx="932" cy="269" r="1.8"/>
    <circle cx="1493" cy="149" r="2.3"/>
    <circle cx="999" cy="118" r="2.8"/>
    <circle cx="109" cy="61" r="1.3"/>
    <circle cx="764" cy="453" r="2.9"/>
    <circle cx="1317" cy="183" r="2.7"/>
    <circle cx="467" cy="373" r="2.3"/>
    <circle cx="1523" cy="466" r="1.6"/>
  </g>

  <!-- 3D Characters Ensemble Silhouette & Lighting -->
  <g transform="translate(1000, 220)">
    <!-- Golden Crescent Moon -->
    <path d="M 220,40 A 180,180 0 1,0 220,380 A 140,140 0 1,1 220,40 Z" fill="#ffea00" filter="drop-shadow(0 0 40px rgba(255,234,0,0.5))"/>
    
    <!-- Buster Moon Koala -->
    <circle cx="210" cy="190" r="32" fill="#cbd5e1"/>
    <circle cx="180" cy="175" r="20" fill="#94a3b8"/>
    <circle cx="240" cy="175" r="20" fill="#94a3b8"/>
    <polygon points="210,225 200,235 220,235" fill="#ef4444"/>
    <rect x="195" y="220" width="30" height="80" rx="8" fill="#ffffff"/>

    <!-- Minions Group Silhouettes -->
    <g transform="translate(-180, 180)">
      <rect x="0" y="30" width="80" height="130" rx="40" fill="#ffea00"/>
      <circle cx="40" cy="70" r="26" fill="#94a3b8"/>
      <circle cx="40" cy="70" r="18" fill="#ffffff"/>
      <circle cx="40" cy="70" r="8" fill="#000000"/>
      <rect x="15" y="110" width="50" height="50" rx="8" fill="#1d4ed8"/>
    </g>
  </g>

  <!-- Bold Hero Editorial Typography Overlay -->
  <g transform="translate(100, 280)">
    <text x="0" y="0" font-family="'Plus Jakarta Sans', 'Montserrat', sans-serif" font-size="14" font-weight="700" letter-spacing="4" fill="#ffea00" text-transform="uppercase">SLUMFILMS 3D ANIMATION STUDIOS</text>
    <text x="0" y="60" font-family="'Plus Jakarta Sans', 'Montserrat', sans-serif" font-size="64" font-weight="700" letter-spacing="-1" fill="#ffffff">WHERE STORIES</text>
    <text x="0" y="128" font-family="'Plus Jakarta Sans', 'Montserrat', sans-serif" font-size="64" font-weight="700" letter-spacing="-1" fill="#ffea00">COME TO LIFE.</text>
    <text x="0" y="175" font-family="'Plus Jakarta Sans', 'Montserrat', sans-serif" font-size="18" font-weight="400" fill="#9ca3af" letter-spacing="0">Pioneering global theatrical 3D animation and contemporary African animated cinema.</text>
  </g>
</svg>